HIERARCHY
ROOT Hips
{
	OFFSET 0.000000 0.000000 0.000000
	CHANNELS 6 Xposition Yposition Zposition Zrotation Yrotation Xrotation 
	JOINT LHipJoint
	{
		OFFSET 0.000000 0.000000 0.000000
		CHANNELS 3 Zrotation Yrotation Xrotation
		JOINT LeftUpLeg
		{
			OFFSET 1.363060 -1.794630 0.839290
			CHANNELS 3 Zrotation Yrotation Xrotation
			JOINT LeftLeg
			{
				OFFSET 2.448110 -6.726130 0.000000
				CHANNELS 3 Zrotation Yrotation Xrotation
				JOINT LeftFoot
				{
					OFFSET 2.562200 -7.039590 0.000000
					CHANNELS 3 Zrotation Yrotation Xrotation
					JOINT LeftToeBase
					{
						OFFSET 0.157640 -0.433110 2.322550
						CHANNELS 3 Zrotation Yrotation Xrotation
						End Site
						{
							OFFSET 0.000000 0.000000 0.000000
						}
					}
				}
			}
		}
	}
	JOINT RHipJoint
	{
		OFFSET 0.000000 0.000000 0.000000
		CHANNELS 3 Zrotation Yrotation Xrotation
		JOINT RightUpLeg
		{
			OFFSET -1.305520 -1.794630 0.839290
			CHANNELS 3 Zrotation Yrotation Xrotation
			JOINT RightLeg
			{
				OFFSET -2.542530 -6.985550 0.000000
				CHANNELS 3 Zrotation Yrotation Xrotation
				JOINT RightFoot
				{
					OFFSET -2.568260 -7.056230 0.000000
					CHANNELS 3 Zrotation Yrotation Xrotation
					JOINT RightToeBase
					{
						OFFSET -0.164730 -0.452590 2.363150
						CHANNELS 3 Zrotation Yrotation Xrotation
						End Site
						{
							OFFSET 0.000000 0.000000 0.000000
						}
					}
				}
			}
		}
	}
	JOINT LowerBack
	{
		OFFSET 0.000000 0.000000 0.000000
		CHANNELS 3 Zrotation Yrotation Xrotation
		JOINT Spine
		{
			OFFSET 0.028270 2.035590 -0.193380
			CHANNELS 3 Zrotation Yrotation Xrotation
			JOINT Spine1
			{
				OFFSET 0.056720 2.048850 -0.042750
				CHANNELS 3 Zrotation Yrotation Xrotation
				JOINT Neck
				{
					OFFSET 0.000000 0.000000 0.000000
					CHANNELS 3 Zrotation Yrotation Xrotation
					JOINT Neck1
					{
						OFFSET -0.054170 1.746240 0.172020
						CHANNELS 3 Zrotation Yrotation Xrotation
						JOINT Head
						{
							OFFSET 0.104070 1.761360 -0.123970
							CHANNELS 3 Zrotation Yrotation Xrotation
							End Site
							{
								OFFSET 0.000000 0.000000 0.000000
							}
						}
					}
				}
				JOINT LeftShoulder
				{
					OFFSET 0.000000 0.000000 0.000000
					CHANNELS 3 Zrotation Yrotation Xrotation
					JOINT LeftArm
					{
						OFFSET 3.362410 1.200890 -0.311210
						CHANNELS 3 Zrotation Yrotation Xrotation
						JOINT LeftForeArm
						{
							OFFSET 4.983000 -0.000000 -0.000000
							CHANNELS 3 Zrotation Yrotation Xrotation
							JOINT LeftHand
							{
								OFFSET 3.483560 -0.000000 -0.000000
								CHANNELS 3 Zrotation Yrotation Xrotation
								JOINT LeftFingerBase
								{
									OFFSET 0.000000 0.000000 0.000000
									CHANNELS 3 Zrotation Yrotation Xrotation
									JOINT LeftHandIndex1
									{
										OFFSET 0.715260 -0.000000 -0.000000
										CHANNELS 3 Zrotation Yrotation Xrotation
										End Site
										{
											OFFSET 0.000000 0.000000 0.000000
										}
									}
								}
								JOINT LThumb
								{
									OFFSET 0.000000 0.000000 0.000000
									CHANNELS 3 Zrotation Yrotation Xrotation
									End Site
									{
										OFFSET 0.000000 0.000000 0.000000
									}
								}
							}
						}
					}
				}
				JOINT RightShoulder
				{
					OFFSET 0.000000 0.000000 0.000000
					CHANNELS 3 Zrotation Yrotation Xrotation
					JOINT RightArm
					{
						OFFSET -3.136600 1.374050 -0.404650
						CHANNELS 3 Zrotation Yrotation Xrotation
						JOINT RightForeArm
						{
							OFFSET -5.241900 -0.000000 -0.000000
							CHANNELS 3 Zrotation Yrotation Xrotation
							JOINT RightHand
							{
								OFFSET -3.444170 -0.000000 -0.000000
								CHANNELS 3 Zrotation Yrotation Xrotation
								JOINT RightFingerBase
								{
									OFFSET 0.000000 0.000000 0.000000
									CHANNELS 3 Zrotation Yrotation Xrotation
									JOINT RightHandIndex1
									{
										OFFSET -0.622530 -0.000000 -0.000000
										CHANNELS 3 Zrotation Yrotation Xrotation
										End Site
										{
											OFFSET 0.000000 0.000000 0.000000
										}
									}
								}
								JOINT RThumb
								{
									OFFSET 0.000000 0.000000 0.000000
									CHANNELS 3 Zrotation Yrotation Xrotation
									End Site
									{
										OFFSET 0.000000 0.000000 0.000000
									}
								}
							}
						}
					}
				}
			}
		}
	}
}
MOTION
Frames: 10
Frame Time: 0.008333
1.190066 17.829716 -1.475933 1.700986 -2.549075 1.461928 -1.357648 6.030163 5.669981 -21.751711 -5.973962 -5.228013 0.001068 5.376912 22.612818 -0.364477 2.462111 -4.486209 0.022543 -0.955812 -2.627189 0.774652 -4.062437 2.725815 17.432012 11.643938 -34.018497 -3.922991 -11.762361 37.536759 3.407884 -12.940416 3.283088 -0.001971 0.198933 -0.546621 -3.045896 -0.739453 5.029343 3.255379 -1.015624 4.673417 3.079042 -0.602500 -8.205719 -5.359485 -3.539532 -17.133046 3.787665 -3.719608 17.867734 0.163370 -1.450073 9.069362 -7.098087 2.636212 -1.140937 -75.219015 -1.842570 30.375053 15.637215 -25.790954 -3.691997 -0.287537 -0.792536 -9.322591 30.875838 25.421401 14.999419 -7.125000 0.000000 0.000000 1.662323 59.859447 0.602960 11.106894 -2.104683 -2.675821 74.696007 -3.885649 10.997740 -10.597553 22.522509 -2.515117 0.986234 -0.336207 3.817296 -16.150949 21.578120 -6.524117 7.125000 0.000000 0.000000 7.323053 -7.476167 6.361393
1.183635 17.832082 -1.380040 1.748743 -2.556808 1.507813 -1.384665 6.065982 5.737121 -21.749716 -5.773955 -4.762034 -0.070775 5.216451 22.189853 -0.372290 2.487175 -4.531099 0.026180 -1.045274 -2.873268 0.846315 -4.051821 2.668301 17.221656 11.879629 -33.981364 -3.575180 -11.376233 36.042348 3.637606 -13.649105 3.566989 -0.000416 -0.007510 0.020658 -3.109578 -0.761477 5.027690 3.262078 -1.047298 4.669023 3.109387 -0.621288 -8.203940 -5.382150 -3.536845 -16.931460 3.810081 -3.737016 17.657829 0.169979 -1.463922 8.973464 -7.091387 2.617716 -1.138126 -75.049480 -2.076381 30.509213 15.734564 -25.922136 -3.738571 -0.283188 -0.782363 -9.565280 30.763037 24.884734 14.656331 -7.125000 0.000000 0.000000 1.681599 59.231748 0.584306 11.109270 -2.116235 -2.685548 74.708539 -3.947966 11.117000 -10.562299 22.463919 -2.485868 1.002309 -0.357797 4.164971 -16.654911 22.012473 -6.868354 7.125000 0.000000 0.000000 7.023894 -6.951241 6.165511
1.176778 17.832768 -1.284614 1.799364 -2.547864 1.538324 -1.411205 6.104940 5.808389 -21.750821 -5.556432 -4.264887 -0.143964 5.049417 21.752972 -0.373356 2.490049 -4.585834 0.026467 -1.050491 -2.887713 0.921086 -4.044459 2.610591 16.996154 12.108916 -33.913027 -3.230423 -10.978902 34.525041 3.879707 -14.400589 3.913680 -0.000760 -0.164917 0.453096 -3.175004 -0.784365 5.040819 3.265668 -1.081317 4.678989 3.139448 -0.640414 -8.200386 -5.352258 -3.529532 -16.684948 3.759935 -3.756328 17.379829 0.145732 -1.485303 8.848674 -7.084182 2.594017 -1.135931 -74.887197 -2.303178 30.606178 15.839255 -26.062335 -3.789035 -0.279363 -0.769991 -9.775155 30.635495 24.239684 14.248885 -7.125000 0.000000 0.000000 1.711865 58.479279 0.564243 11.110789 -2.131989 -2.698103 74.720042 -3.993216 11.244760 -10.535991 22.416250 -2.454780 1.023634 -0.389686 4.659325 -17.344233 22.656818 -7.356223 7.125000 0.000000 0.000000 6.619257 -6.179169 5.907619
1.171587 17.830729 -1.188481 1.940855 -2.534132 1.614390 -1.436434 6.134239 5.869121 -21.865439 -5.386697 -3.783780 -0.214009 4.881064 21.322799 -0.384104 2.522623 -4.643969 0.027766 -1.075604 -2.956887 0.988029 -4.030229 2.547218 16.653641 12.283022 -33.919962 -2.888986 -10.571391 32.995410 4.090236 -15.042863 4.165927 -0.002673 -0.309211 0.849589 -3.307835 -0.808327 5.045468 3.249224 -1.122545 4.647340 3.200980 -0.661411 -8.219090 -5.323869 -3.518292 -16.611254 3.660894 -3.742299 17.253796 0.113030 -1.491850 8.797699 -7.078966 2.579395 -1.131227 -74.780084 -2.476642 30.685917 15.941727 -26.193711 -3.837769 -0.267326 -0.758471 -9.888931 30.092331 23.794606 13.725856 -7.125000 0.000000 0.000000 1.198846 57.850697 0.383640 11.109286 -2.144423 -2.707731 74.733270 -4.083997 11.183397 -10.530111 22.405026 -2.436924 1.036442 -0.425449 5.300922 -17.872313 23.293510 -7.793008 7.125000 0.000000 0.000000 6.330709 -5.428512 5.736097
1.166560 17.827822 -1.091684 2.089964 -2.535334 1.696201 -1.461197 6.161818 5.927657 -21.989781 -5.222568 -3.315983 -0.282238 4.715413 20.900666 -0.395998 2.557148 -4.693571 0.028483 -1.089149 -2.994224 1.053415 -4.015309 2.484154 16.300092 12.465887 -33.930099 -2.548768 -10.159077 31.472446 4.287111 -15.626438 4.313354 -0.008236 -0.514090 1.412862 -3.450058 -0.826402 5.040374 3.230764 -1.156498 4.618879 3.266887 -0.678732 -8.231379 -5.286386 -3.501637 -16.588744 3.558464 -3.716942 17.166616 0.079726 -1.491618 8.766676 -7.075015 2.567101 -1.126626 -74.676018 -2.657257 30.767665 16.034489 -26.311373 -3.881819 -0.254578 -0.747740 -9.983392 29.509615 23.408364 13.214120 -7.125000 0.000000 0.000000 0.624983 57.279024 0.188836 11.107708 -2.155295 -2.715166 74.749275 -4.162554 11.088607 -10.512375 22.376755 -2.418231 1.045271 -0.454802 5.872268 -18.266924 23.782375 -8.125750 7.125000 0.000000 0.000000 6.117206 -4.852466 5.610204
1.161188 17.821765 -0.991344 2.211765 -2.633211 1.776281 -1.484149 6.186646 5.981210 -22.081294 -5.054014 -2.917682 -0.341766 4.567616 20.522958 -0.407059 2.579411 -4.687382 0.024757 -1.014516 -2.788896 1.115565 -4.001746 2.427657 15.974093 12.748466 -33.898300 -2.213381 -9.725282 30.001003 4.425105 -15.935145 3.887354 -0.035178 -1.105998 3.041442 -3.595247 -0.807035 4.981737 3.216236 -1.139346 4.644398 3.334116 -0.671695 -8.185549 -5.191194 -3.454581 -16.742191 3.475139 -3.648608 17.195933 0.049632 -1.461467 8.798948 -7.077284 2.561810 -1.124727 -74.545572 -2.926076 30.876035 16.068768 -26.351117 -3.898206 -0.244158 -0.741210 -10.036813 29.022584 23.223306 12.867435 -7.125000 0.000000 0.000000 0.119401 56.959052 0.037678 11.108141 -2.159188 -2.711383 74.781100 -4.127810 10.941538 -10.404234 22.212679 -2.383473 1.036389 -0.441168 5.886399 -17.965031 23.359445 -7.854272 7.125000 0.000000 0.000000 6.274441 -5.343259 5.696761
1.155389 17.815415 -0.890599 2.302398 -2.702325 1.852609 -1.508041 6.215036 6.038029 -22.127398 -4.890562 -2.527951 -0.401822 4.420722 20.142705 -0.410513 2.570757 -4.652669 0.020421 -0.918441 -2.524574 1.185202 -3.991835 2.368666 15.668987 13.007945 -33.841329 -1.903836 -9.295627 28.526863 4.577727 -16.383446 4.059288 -0.040135 -1.082601 2.977631 -3.696438 -0.801292 4.910295 3.205712 -1.135241 4.690840 3.378949 -0.672701 -8.116658 -5.116092 -3.414698 -16.868393 3.414682 -3.591672 17.176901 0.027333 -1.436919 8.813010 -7.079460 2.554672 -1.125226 -74.420228 -3.213523 30.947402 16.119553 -26.418563 -3.922605 -0.241717 -0.737310 -9.999756 28.903889 23.103433 12.744252 -7.125000 0.000000 0.000000 0.015318 56.797080 0.004958 11.110179 -2.162783 -2.705431 74.828817 -4.037062 10.747354 -10.276758 22.013993 -2.340926 1.026188 -0.428730 5.888276 -17.620346 22.940805 -7.569260 7.125000 0.000000 0.000000 6.461613 -5.832967 5.808148
1.148932 17.808615 -0.789230 2.345124 -2.727228 1.923170 -1.533378 6.248902 6.099869 -22.103706 -4.734949 -2.151393 -0.462692 4.275214 19.758540 -0.402275 2.514585 -4.574114 0.015148 -0.789408 -2.169578 1.266347 -3.987538 2.305842 15.395992 13.231915 -33.745667 -1.634010 -8.872335 27.048577 4.752829 -17.046309 5.150267 -0.011302 -0.113455 0.312551 -3.730004 -0.816488 4.819171 3.201339 -1.151189 4.769439 3.389359 -0.686070 -8.012321 -5.071868 -3.385841 -16.952716 3.389376 -3.552254 17.083557 0.017015 -1.420983 8.799080 -7.081491 2.544696 -1.129411 -74.302724 -3.529600 30.961895 16.195710 -26.528589 -3.959318 -0.251541 -0.737456 -9.823631 29.351339 23.083753 12.964598 -7.125000 0.000000 0.000000 0.528351 56.877962 0.154282 11.114684 -2.165918 -2.696146 74.900960 -3.860234 10.480754 -10.119565 21.762111 -2.286404 1.013959 -0.418129 5.871319 -17.209886 22.528759 -7.263446 7.125000 0.000000 0.000000 6.694800 -6.321008 5.957702
1.141807 17.800627 -0.690645 2.439850 -2.707804 1.976230 -1.555856 6.281003 6.157915 -22.132953 -4.559579 -1.748489 -0.524228 4.120374 19.356972 -0.395678 2.457633 -4.479216 0.021120 -0.912220 -2.507479 1.339824 -3.984906 2.244274 15.044418 13.459370 -33.634415 -1.369731 -8.449197 25.615120 4.888237 -17.544740 5.893172 -0.008164 0.481109 -1.322177 -3.803720 -0.830615 4.838390 3.174204 -1.174316 4.768406 3.409843 -0.699934 -8.019959 -5.069162 -3.378909 -16.882548 3.380086 -3.550796 16.978259 0.013884 -1.424449 8.755621 -7.078808 2.533275 -1.129959 -74.157410 -3.755486 31.091532 16.283424 -26.655069 -4.002108 -0.259726 -0.737402 -9.738821 29.778343 23.030758 13.158394 -7.125000 0.000000 0.000000 1.028165 56.917695 0.300441 11.120154 -2.174458 -2.695116 74.967027 -3.838766 10.220879 -10.012295 21.591138 -2.245784 1.009272 -0.420810 5.997120 -17.042546 22.439208 -7.164232 7.125000 0.000000 0.000000 6.794821 -6.435137 6.034119
1.134321 17.791999 -0.593562 2.562620 -2.664474 2.019851 -1.576792 6.312152 6.213916 -22.190752 -4.373552 -1.331375 -0.586124 3.960500 18.946018 -0.389966 2.400260 -4.375503 0.033158 -1.170858 -3.219076 1.409165 -3.983172 2.183383 14.650464 13.688704 -33.514755 -1.108444 -8.026143 24.205838 5.002237 -17.954489 6.448353 -0.018883 0.873651 -2.401210 -3.899091 -0.844166 4.917121 3.134792 -1.201317 4.724423 3.435761 -0.714064 -8.087988 -5.088848 -3.383802 -16.729060 3.379435 -3.569813 16.866513 0.014629 -1.438378 8.696235 -7.073581 2.521075 -1.128545 -73.997096 -3.932730 31.283270 16.377370 -26.790422 -4.048175 -0.267027 -0.737240 -9.703260 30.194320 22.959795 13.337869 -7.125000 0.000000 0.000000 1.520849 56.935236 0.444893 11.126145 -2.185912 -2.698537 75.029818 -3.901088 9.964630 -9.931950 21.463803 -2.212660 1.008653 -0.430654 6.199913 -17.006327 22.523587 -7.176441 7.125000 0.000000 0.000000 6.823024 -6.347606 6.071092
